<svg xmlns="http://www.w3.org/2000/svg" viewBox="0 0 253.11 142.9"><defs><style>.cls-1{fill:#616161;}.cls-2{fill:#616161;}</style></defs><g id="Layer_2" data-name="Layer 2"><g id="Layer_1-2" data-name="Layer 1"><path class="cls-1" d="M59.71,43.86v1h-5l8.61,19.39,7.63-19.39H65.52v-1h9.8v1H72.1L59.71,75.78h-.56L45.22,44.84H41.44v-1Z"/><path class="cls-1" d="M86.66,59.47c0,1.68.07,3.37.21,5.08A14.24,14.24,0,0,0,88,69.17a8.38,8.38,0,0,0,2.66,3.39,7.91,7.91,0,0,0,4.9,1.33,9.74,9.74,0,0,0,4.72-1,11.81,11.81,0,0,0,3.15-2.41,10.51,10.51,0,0,0,1.82-2.7,7.57,7.57,0,0,0,.67-2l1,.35A12.71,12.71,0,0,1,105.7,69a10.86,10.86,0,0,1-2.31,2.8,12.87,12.87,0,0,1-3.64,2.17,14.14,14.14,0,0,1-5.25.87,20.79,20.79,0,0,1-6.79-1.08,16.41,16.41,0,0,1-5.5-3.15,14.52,14.52,0,0,1-3.67-5,16.38,16.38,0,0,1-1.33-6.76,14.54,14.54,0,0,1,1.26-5.88,16.49,16.49,0,0,1,3.46-5.07,17.72,17.72,0,0,1,5.18-3.57,15.18,15.18,0,0,1,6.41-1.37,16.42,16.42,0,0,1,4.9.77A13.28,13.28,0,0,1,102.83,46a12.48,12.48,0,0,1,3.22,4.17,13.69,13.69,0,0,1,1.26,6.12H86.66Zm11.2-8.82c0-.51,0-1.14-.07-1.89a7.91,7.91,0,0,0-.49-2.24,4.48,4.48,0,0,0-1.37-1.89,4,4,0,0,0-2.62-.77A5.49,5.49,0,0,0,89.63,45a6.76,6.76,0,0,0-1.92,2.84,14.46,14.46,0,0,0-.81,3.71q-.18,2-.24,3.81h11.2Z"/><path class="cls-1" d="M138.74,72.91V50.79a6.46,6.46,0,0,0-1.19-4.3,4.07,4.07,0,0,0-3.22-1.37,6.81,6.81,0,0,0-3.22.81,7.68,7.68,0,0,0-2.7,2.41,13.17,13.17,0,0,0-1.85,4,19.88,19.88,0,0,0-.7,5.6v15h4.41v1H112.7v-1h4.62V44.84H112.7v-1h13v7h.14c.18-.42.51-1.06,1-1.92a10,10,0,0,1,2-2.56,12.14,12.14,0,0,1,3.43-2.2,12.8,12.8,0,0,1,5.25-1,9.48,9.48,0,0,1,7.17,2.66,10.1,10.1,0,0,1,2.56,7.28V72.91"/><path class="cls-1" d="M180.07,44.18a17.87,17.87,0,0,1,5.43,3.46,15.58,15.58,0,0,1,3.6,5.08,14.91,14.91,0,0,1,1.3,6.12,15.11,15.11,0,0,1-1.3,6.2,15.53,15.53,0,0,1-3.6,5.07,17.25,17.25,0,0,1-5.43,3.43,18.74,18.74,0,0,1-13.51,0,17.25,17.25,0,0,1-5.43-3.43,15.68,15.68,0,0,1-3.6-5.07,15.11,15.11,0,0,1-1.3-6.2,14.91,14.91,0,0,1,1.3-6.12,15.73,15.73,0,0,1,3.6-5.08,17.87,17.87,0,0,1,5.43-3.46,18.2,18.2,0,0,1,13.51,0ZM177.58,72.6a7.65,7.65,0,0,0,2.28-3.4,18.28,18.28,0,0,0,.91-4.83c.12-1.82.17-3.66.17-5.53s-.05-3.7-.17-5.49a18.2,18.2,0,0,0-.91-4.8,7.56,7.56,0,0,0-2.28-3.39,7.66,7.66,0,0,0-8.54,0,7.62,7.62,0,0,0-2.27,3.39,18.2,18.2,0,0,0-.91,4.8c-.12,1.79-.17,3.63-.17,5.49s.05,3.71.17,5.53a18.28,18.28,0,0,0,.91,4.83A7.71,7.71,0,0,0,169,72.6a7.71,7.71,0,0,0,8.54,0Z"/><path class="cls-1" d="M208.73,43.86v5h.15A18.81,18.81,0,0,1,210,47.19a8.89,8.89,0,0,1,1.85-1.82,10.73,10.73,0,0,1,6.76-2.14,13.63,13.63,0,0,1,4.09.53,9.14,9.14,0,0,1,2.73,1.33,7.36,7.36,0,0,1,1.75,1.78c.44.66.85,1.31,1.22,2a10.6,10.6,0,0,1,2.35-3,10.77,10.77,0,0,1,2.63-1.68,9.14,9.14,0,0,1,2.52-.77,13.48,13.48,0,0,1,2-.18A13,13,0,0,1,244,44.42a8.15,8.15,0,0,1,3.15,2.84,8.29,8.29,0,0,1,1.15,3.46c.12,1.22.18,2.24.18,3.08V72.91h4.61v1H235.82v-1H240V51.21a7.93,7.93,0,0,0-1.09-4.51,4.06,4.06,0,0,0-3.6-1.58,5.52,5.52,0,0,0-1.89.42,7.75,7.75,0,0,0-2.17,1.26A7,7,0,0,0,229.42,49a6.75,6.75,0,0,0-.73,3.25V72.91h4.12v1H215.94v-1h4.21V50.65c0-2-.45-3.49-1.34-4.3a4.21,4.21,0,0,0-2.93-1.23,6.3,6.3,0,0,0-4.9,2.45A9.91,9.91,0,0,0,210,49a6.34,6.34,0,0,0-.67,1.68,13.5,13.5,0,0,0-.35,2.17c-.07.81-.1,1.81-.1,3V72.91H213v1H195.71v-1h4.62V44.84h-4.62v-1Z"/><path class="cls-1" d="M147.28,72.9v49.49H152v1H134.05v-1h4.69V71.17"/><path class="cls-1" d="M169.32,93.34v29.05H174v1H156.09v-1h4.69V94.32h-4.69v-1Zm-7.77-14.19a4.9,4.9,0,1,1-1.47,3.5A4.78,4.78,0,0,1,161.55,79.15Z"/><path class="cls-1" d="M177.79,94.32v-1h13v5.18H191q2.18-6.15,8.26-6.16a14.2,14.2,0,0,1,6.93,1.58,15.17,15.17,0,0,1,4.73,4,16.64,16.64,0,0,1,2.73,5.18,17.77,17.77,0,0,1,.87,5.25,16.33,16.33,0,0,1-1.12,6,16.16,16.16,0,0,1-3.11,5.08,15,15,0,0,1-4.8,3.53,14.26,14.26,0,0,1-6.23,1.33,7.49,7.49,0,0,1-5.18-1.75,11.11,11.11,0,0,1-2.94-4.2H191v23.59h4.76v1H177.79v-1h4.62V94.32Zm13.34,18.87a17.21,17.21,0,0,0,1,4.9,9.4,9.4,0,0,0,2.49,3.78,6.53,6.53,0,0,0,4.58,1.5,4.46,4.46,0,0,0,3.12-1.05,6.53,6.53,0,0,0,1.75-3,21.51,21.51,0,0,0,.77-4.72q.17-2.76.17-6.2a67.57,67.57,0,0,0-.31-7.1,15.91,15.91,0,0,0-1.09-4.66,5.55,5.55,0,0,0-2-2.52,5.44,5.44,0,0,0-3-.77,5.75,5.75,0,0,0-4.13,1.47,9.3,9.3,0,0,0-2.31,3.71,21.06,21.06,0,0,0-1,4.9c-.17,1.78-.25,3.43-.25,5S191,111.44,191.13,113.19Z"/><path class="cls-1" d="M221.19,113.22c.56,1.31,1.13,2.57,1.72,3.78a14.67,14.67,0,0,0,2.06,3.22,9.4,9.4,0,0,0,2.87,2.28,8.91,8.91,0,0,0,4.13.87c.42,0,1,0,1.68-.07a5.14,5.14,0,0,0,2.07-.59,4.85,4.85,0,0,0,1.75-1.61,5.54,5.54,0,0,0,.73-3.12,5.32,5.32,0,0,0-.17-1.29,3.79,3.79,0,0,0-.74-1.37,6.33,6.33,0,0,0-1.64-1.36,18.27,18.27,0,0,0-3-1.37l-5.67-2.1a15.42,15.42,0,0,1-2.1-.94,8.27,8.27,0,0,1-2.06-1.58,8.37,8.37,0,0,1-1.58-2.34,7.74,7.74,0,0,1-.63-3.26,9.11,9.11,0,0,1,.84-3.85,9.75,9.75,0,0,1,2.35-3.18,11.22,11.22,0,0,1,3.64-2.17,13,13,0,0,1,4.65-.81,10.91,10.91,0,0,1,2.49.28q1.16.28,2.1.6c.63.21,1.19.41,1.68.59a3.4,3.4,0,0,0,1.15.28c.52,0,.84-.09,1-.28a2.39,2.39,0,0,0,.35-.63h1v8.54h-.91c-.46-1.12-.94-2.19-1.43-3.22a12,12,0,0,0-1.75-2.69A7.23,7.23,0,0,0,235.26,94a8.86,8.86,0,0,0-3.64-.67,7.68,7.68,0,0,0-4.23,1.23,4,4,0,0,0-1.93,3.6,5.43,5.43,0,0,0,.14,1.12,3.7,3.7,0,0,0,.63,1.3,5.69,5.69,0,0,0,1.54,1.33,14.93,14.93,0,0,0,2.8,1.29l6,2a13.75,13.75,0,0,1,5.74,3.5,7.93,7.93,0,0,1,2,5.53,8.63,8.63,0,0,1-1,4.17,10.25,10.25,0,0,1-2.66,3.15,12.07,12.07,0,0,1-3.82,2,14.2,14.2,0,0,1-7.21.42c-1-.18-1.92-.41-2.83-.66s-1.74-.48-2.49-.67a8.08,8.08,0,0,0-1.75-.28,1.22,1.22,0,0,0-.8.21,1.85,1.85,0,0,0-.46.77h-1V113.22Z"/><path class="cls-2" d="M17.54,74.55c3.17,4.31,6.45,8.55,9.68,12.83.11.15.21.31.44.65-7.85-.7-12.79,2.07-14,9.39a27.66,27.66,0,0,1-7-3.68,23.39,23.39,0,0,0-2.56-1.67c-.6-.28-1.7-.49-2-.21a2.24,2.24,0,0,0-.71,2,10.79,10.79,0,0,0,2,3.7,57.87,57.87,0,0,0,5.07,5c.57.52.83.86.51,1.64-2.44,6,.71,14.24,9.71,16a88.33,88.33,0,0,0,10.06,1,4.47,4.47,0,0,1,2.52.83,26.77,26.77,0,0,0,16.61,5.37,25.81,25.81,0,0,0,15.16-5.43,5.64,5.64,0,0,1,3.68-1.11c11.64.1,23.27.23,34.91.13a31,31,0,0,0,8.55-1.4,8.58,8.58,0,0,0,6.61-8.65c0-4.2-2-7.4-6.27-9.23-3.89-1.66-8.11-1.79-12.29-1.92-2.24-.08-4.48,0-6.88,0a11.62,11.62,0,0,0-.93-7.3C88.5,88.64,85,87.22,80.75,87a22.8,22.8,0,0,0-13.11,3.64,2.58,2.58,0,0,1-2.34.21c-6.92-2.08-12.13-6.29-16.46-11.32A66.8,66.8,0,0,1,34,49.6c-.65-3,.09-5.87,1.11-8.71,1.74-4.85,4.25-9.3,8.56-12.7A28.75,28.75,0,0,1,48,25.5c2.65-1.41,4.17-3.31,3.81-6.21a3.06,3.06,0,0,1,.07-.57c1.1.25,2.14.53,3.2.72a17.75,17.75,0,0,0,7.54.3,1,1,0,0,1,.78.16,23.74,23.74,0,0,1,2.73,2.56,4.25,4.25,0,0,1,.59,1.83c.27,1.14.5,2.29.75,3.44l.38,0c.12-1.36.24-2.72.36-4h4.65l.09-.29a13.48,13.48,0,0,1-8.53-5c1.41-1.35,1.11-2.71.4-4.08A4.9,4.9,0,0,0,63.35,12c-1.13-1.9-2.23-3.81-3.33-5.72A5,5,0,0,0,55.3,3.31,2.36,2.36,0,0,1,54.35,3C43.5-1.87,33.26-.71,23.59,5.66a34.22,34.22,0,0,0-4.43,3.61,31,31,0,0,1-6.42,4.81C5.17,18.15,1.56,24.46.37,32.17-.94,40.64,1.36,48.45,5.26,56,8.65,62.6,13.14,68.55,17.54,74.55Z"/></g></g></svg>